<?xml version="1.0" encoding="utf-8"?>
<svg version="1.1" xmlns="http://www.w3.org/2000/svg" x="0px" y="0px"
	 viewBox="0 0 512 512" xml:space="preserve">
<defs>
  <linearGradient id="bgGrad" x1="0%" y1="0%" x2="100%" y2="100%">
    <stop offset="0%" style="stop-color:#0d0d1a"/>
    <stop offset="100%" style="stop-color:#1a1a2e"/>
  </linearGradient>
  <linearGradient id="gGrad" x1="0%" y1="0%" x2="100%" y2="100%">
    <stop offset="0%" style="stop-color:#00ff88"/>
    <stop offset="50%" style="stop-color:#00cc6a"/>
    <stop offset="100%" style="stop-color:#009950"/>
  </linearGradient>
  <linearGradient id="gShine" x1="0%" y1="0%" x2="0%" y2="100%">
    <stop offset="0%" style="stop-color:#66ffbb;stop-opacity:0.6"/>
    <stop offset="40%" style="stop-color:#00ff88;stop-opacity:0"/>
    <stop offset="100%" style="stop-color:#004422;stop-opacity:0.3"/>
  </linearGradient>
  <linearGradient id="g3dTop" x1="0%" y1="0%" x2="0%" y2="100%">
    <stop offset="0%" style="stop-color:#88ffcc;stop-opacity:0.5"/>
    <stop offset="100%" style="stop-color:#00ff88;stop-opacity:0"/>
  </linearGradient>
  <filter id="shadow3d" x="-10%" y="-10%" width="130%" height="130%">
    <feDropShadow dx="4" dy="6" stdDeviation="8" flood-color="#000000" flood-opacity="0.6"/>
  </filter>
  <filter id="innerGlow" x="-20%" y="-20%" width="140%" height="140%">
    <feGaussianBlur in="SourceGraphic" stdDeviation="6" result="blur"/>
    <feColorMatrix in="blur" type="matrix" values="0 0 0 0 0  0 1 0 0 1  0 0 0.5 0 0.3  0 0 0 1 0" result="glow"/>
    <feMerge>
      <feMergeNode in="glow"/>
      <feMergeNode in="SourceGraphic"/>
    </feMerge>
  </filter>
  <filter id="bgShadow" x="-5%" y="-5%" width="115%" height="115%">
    <feDropShadow dx="0" dy="2" stdDeviation="4" flood-color="#00ff88" flood-opacity="0.15"/>
  </filter>
  <clipPath id="bgClip">
    <rect x="20" y="20" width="472" height="472" rx="100" ry="100"/>
  </clipPath>
</defs>

<!-- Background rounded square -->
<g filter="url(#bgShadow)">
  <rect x="20" y="20" width="472" height="472" rx="100" ry="100" fill="url(#bgGrad)"/>
  <!-- Subtle border glow -->
  <rect x="20" y="20" width="472" height="472" rx="100" ry="100" fill="none" stroke="#00ff88" stroke-width="1.5" stroke-opacity="0.3"/>
</g>

<!-- Background subtle highlight (3D depth on bg) -->
<g clip-path="url(#bgClip)">
  <rect x="20" y="20" width="472" height="200" rx="100" ry="100" fill="white" opacity="0.03"/>
</g>

<!-- G letter - 3D shadow layer (dark offset) -->
<g transform="translate(6, 8)" opacity="0.5">
  <path d="M346,222H238v56h52c-5,28-30,49-59,49c-34,0-61-27-61-61s27-61,61-61c15,0,29,6,40,15l39-39
    c-21-20-49-33-79-33c-64,0-116,52-116,116s52,116,116,116c59,0,108-44,115-101L346,222z" 
    fill="#003318"/>
</g>

<!-- G letter - Main 3D body -->
<g filter="url(#shadow3d)">
  <path d="M346,222H238v56h52c-5,28-30,49-59,49c-34,0-61-27-61-61s27-61,61-61c15,0,29,6,40,15l39-39
    c-21-20-49-33-79-33c-64,0-116,52-116,116s52,116,116,116c59,0,108-44,115-101L346,222z" 
    fill="url(#gGrad)"/>
</g>

<!-- G letter - 3D shine overlay -->
<path d="M346,222H238v56h52c-5,28-30,49-59,49c-34,0-61-27-61-61s27-61,61-61c15,0,29,6,40,15l39-39
  c-21-20-49-33-79-33c-64,0-116,52-116,116s52,116,116,116c59,0,108-44,115-101L346,222z" 
  fill="url(#g3dTop)"/>

<!-- G letter - Edge highlight (top-left light source) -->
<path d="M346,222H238v56h52c-5,28-30,49-59,49c-34,0-61-27-61-61s27-61,61-61c15,0,29,6,40,15l39-39
  c-21-20-49-33-79-33c-64,0-116,52-116,116s52,116,116,116c59,0,108-44,115-101L346,222z" 
  fill="url(#gShine)" opacity="0.7"/>

<!-- Inner cut stroke for 3D depth on G shape -->
<path d="M346,222H238v56h52c-5,28-30,49-59,49c-34,0-61-27-61-61s27-61,61-61c15,0,29,6,40,15l39-39
  c-21-20-49-33-79-33c-64,0-116,52-116,116s52,116,116,116c59,0,108-44,115-101L346,222z" 
  fill="none" stroke="#66ffbb" stroke-width="2" stroke-opacity="0.3"/>

<!-- Small specular highlight dot -->
<ellipse cx="200" cy="180" rx="18" ry="12" fill="white" opacity="0.12" transform="rotate(-20 200 180)"/>
</svg>
